# AST/ASF file generated using VICON BodyLanguage
# -----------------------------------------------
:version 1.10
:name VICON
:units
  mass 1.0
  length 0.45
  angle deg
:documentation
   .ast/.asf automatically generated from VICON data using
   VICON BodyBuilder and BodyLanguage model FoxedUp or BRILLIANT.MOD
:root
   order TX TY TZ RX RY RZ
   axis XYZ
   position 0 0 0  
   orientation 0 0 0 
:bonedata
  begin
     id 1 
     name lhipjoint
     direction 0.677091 -0.635792 0.370561 
     length 2.74323 
     axis 0 0 0  XYZ
  end
  begin
     id 2 
     name lfemur
     direction 0.34202 -0.939693 0  
     length 7.44995  
     axis 0 0 20  XYZ
    dof rx ry rz
    limits (-160.0 20.0)
           (-70.0 70.0)
           (-60.0 70.0)
  end
  begin
     id 3 
     name ltibia
     direction 0.34202 -0.939693 0   
     length 7.34467   
     axis 0 0 20   XYZ
    dof rx
    limits (-10.0 170.0)
  end
  begin
     id 4 
     name lfoot
     direction 0.101953 -0.280114 0.954537   
     length 1.72105   
     axis -90 7.62852e-016 20   XYZ
    dof rx rz
    limits (-45.0 90.0)
           (-70.0 20.0)
  end
  begin
     id 5 
     name ltoes
     direction 1.53537e-011 -4.21915e-011 1   
     length 0.865872   
     axis -90 7.62852e-016 20   XYZ
    dof rx
    limits (-90.0 20.0)
  end
  begin
     id 6 
     name rhipjoint
     direction -0.695735 -0.620586 0.361699   
     length 2.81045  
     axis 0 0 0  XYZ 
  end
  begin
     id 7 
     name rfemur
     direction -0.34202 -0.939693 0   
     length 7.29387   
     axis 0 0 -20   XYZ
    dof rx ry rz
    limits (-160.0 20.0)
           (-70.0 70.0)
           (-70.0 60.0)
  end
  begin
     id 8 
     name rtibia
     direction -0.34202 -0.939693 0   
     length 7.44935   
     axis 0 0 -20   XYZ
    dof rx
    limits (-10.0 170.0)
 end
 begin
     id 9 
     name rfoot
     direction -0.104163 -0.286184 0.952496   
     length 1.77731  
     axis -90 -7.62852e-016 -20   XYZ
    dof rx rz
    limits (-45.0 90.0)
           (-20.0 70.0)
  end
  begin
     id 10 
     name rtoes
     direction -1.5355e-011 -4.21888e-011 1   
     length 0.892424   
     axis -90 -7.62852e-016 -20   XYZ
    dof rx
    limits (-90.0 20.0)
  end
  begin
     id 11 
     name lowerback
     direction 0.0100202 0.997226 -0.0737589   
     length 2.16892   
     axis 0 0 0   XYZ
    dof rx ry rz
    limits (-20.0 45.0)
           (-30.0 30.0)
           (-30.0 30.0)
  end
  begin
     id 12 
     name upperback
     direction 0.00432398 0.999988 -0.00215019   
     length 2.17326   
     axis 0 0 0   XYZ
    dof rx ry rz
    limits (-20.0 45.0)
           (-30.0 30.0)
           (-30.0 30.0)
  end
  begin
     id 13 
     name thorax
     direction -0.00195047 0.999485 0.0320434   
     length 2.18139   
     axis 0 0 0   XYZ
    dof rx ry rz
    limits (-20.0 45.0)
           (-30.0 30.0)
           (-30.0 30.0)
  end
  begin
     id 14 
     name lowerneck
     direction 0.00782762 0.986241 0.165128   
     length 1.88415   
     axis 0 0 0   XYZ
    dof rx ry rz
    limits (-20.0 45.0)
           (-30.0 30.0)
           (-30.0 30.0)
  end
  begin
     id 15 
     name upperneck
     direction 0.00988667 0.981098 -0.193258   
     length 1.9242   
     axis 0 0 0   XYZ
    dof rx ry rz
    limits (-20.0 45.0)
           (-30.0 30.0)
           (-30.0 30.0)
  end
  begin
     id 16
     name head
     direction 0.00252199 0.996513 -0.0833958  
     length 1.93887  
     axis 0 0 0   XYZ
    dof rx ry rz
    limits (-20.0 45.0)
           (-30.0 30.0)
           (-30.0 30.0)
  end
  begin
     id 17 
     name lclavicle
     direction 0.929492 0.368193 -0.0218667  
     length 3.5955  
     axis 0 0 0   XYZ
    dof ry rz
    limits (-20.0 10.0)
           (0.0 20.0)
  end
  begin
     id 18 
     name lhumerus
     direction 1 -4.48972e-011 1.41911e-027   
     length 5.2795   
     axis 180 -30 -90   XYZ
    dof rx ry rz
    limits (-60.0 90.0)
           (-90.0 90.0)
           (-90.0 90.0)
  end
  begin
     id 19
     name lradius
     direction 1 -4.48963e-011 7.05772e-027   
     length 3.53504   
     axis 180 -30 -90   XYZ
    dof rx
    limits (-10.0 170.0)
  end
  begin
     id 20
     name lwrist
     direction 1 -4.48957e-011 9.54866e-027   
     length 1.76752   
     axis -7.69462e-015 90 90   XYZ
    dof ry
    limits (-180.0 0.0)
 end
  begin
     id 21 
     name lhand
     direction 1 -4.48979e-011 1.90973e-026   
     length 0.667948   
     axis -1.21857e-014 90 90   XYZ
    dof rx rz
    limits (-90.0 90.0)
           (-45.0 45.0)
  end
  begin
     id 22 
     name lfingers
     direction 1 -4.48987e-011 3.81946e-026   
     length 0.538517   
     axis -2.43714e-014 90 90   XYZ
    dof rx
    limits (0.0 90.0)
  end
  begin
     id 23
     name lthumb
     direction 0.707107 -6.34962e-011 0.707107   
     length 0.773206   
     axis -90 45 2.85299e-015   XYZ
    dof rx rz
    limits (-45.0 45.0)
           (-45.0 45.0)
  end
  begin
     id 24 
     name rclavicle
     direction -0.898763 0.414256 -0.143584   
     length 3.5176  
     axis 0 0 0   XYZ 
    dof ry rz
    limits (-10.0 20.0)
           (-20.0 0.0)
  end
  begin
     id 25 
     name rhumerus
     direction -1 -4.48971e-011 1.129e-027  
     length 5.25035   
     axis 180 30 90   XYZ
    dof rx ry rz
    limits (-90.0 60.0)
           (-90.0 90.0)
           (-90.0 90.0)
  end
  begin
     id 26 
     name rradius
     direction -1 -4.48955e-011 6.34664e-027   
     length 3.58884   
     axis 180 30 90   XYZ
    dof rx
    limits (-10.0 170.0)
  end
  begin
     id 27 
     name rwrist
     direction -1 -4.48966e-011 9.54866e-027   
     length 1.79442   
     axis -7.69462e-015 -90 -90   XYZ
    dof ry
    limits (-180.0 0.0)
  end
  begin
     id 28
     name rhand
     direction -1 -4.48973e-011 1.90973e-026   
     length 0.779235   
     axis -1.21857e-014 -90 -90   XYZ
    dof rx rz
    limits (-90.0 90.0)
           (-45.0 45.0)
  end
  begin
     id 29
     name rfingers
     direction -1 -4.48984e-011 3.81946e-026   
     length 0.62824   
     axis -2.43714e-014 -90 -90   XYZ
    dof rx
    limits (0.0 90.0)
  end
  begin
     id 30
     name rthumb
     direction -0.707107 -6.34968e-011 0.707107   
     length 0.90203   
     axis -90 -45 -2.85299e-015   XYZ
    dof rx rz
    limits (-45.0 45.0)
           (-45.0 45.0)
  end
:hierarchy
  begin
    root lhipjoint rhipjoint lowerback
    lhipjoint lfemur
    lfemur ltibia
    ltibia lfoot
    lfoot ltoes
    rhipjoint rfemur
    rfemur rtibia
    rtibia rfoot
    rfoot rtoes
    lowerback upperback
    upperback thorax
    thorax lowerneck lclavicle rclavicle
    lowerneck upperneck
    upperneck head
    lclavicle lhumerus
    lhumerus lradius
    lradius lwrist
    lwrist lhand lthumb
    lhand lfingers
    rclavicle rhumerus
    rhumerus rradius
    rradius rwrist
    rwrist rhand rthumb
    rhand rfingers
  end

#!OML:ASF I:\Random Stuff\random\construction\7_22_03\Session 2\subj1.ASF
:FULLY-SPECIFIED
:DEGREES
1
root 4.96031 18.615 -9.95187 4.64455 11.3391 -3.83689
lowerback 1.18297 2.1319 3.58555
upperback -1.65676 2.93448 0.244608
thorax -2.19855 1.40749 -1.84086
lowerneck -23.9638 2.94134 3.44712
upperneck 26.4383 2.58298 1.01587
head 12.8612 1.65549 0.281444
rclavicle 5.77718e-016 2.5842e-015
rhumerus -38.1797 12.4477 -90.0791
rradius 52.3945
rwrist -14.8176
rhand -21.1782 12.1884
rfingers 7.12502
rthumb 5.20224 -17.7277
lclavicle 5.77718e-016 2.5842e-015
lhumerus -35.4613 -8.2477 86.1089
lradius 35.8631
lwrist 32.4596
lhand -19.276 62.841
lfingers 7.12502
lthumb -172.961 87.296
rfemur 1.79532 -4.71444 23.0206
rtibia 7.95139e-016
rfoot -4.44193 -9.38576
rtoes -56.8463
lfemur -16.0524 -13.6686 -12.5881
ltibia 25.9389
lfoot -16.4278 4.54128
ltoes -60.6383
2
root 4.94852 18.6135 -9.95848 4.56311 11.5134 -3.77466
lowerback 1.21347 2.11072 3.54666
upperback -1.67193 2.90611 0.201704
thorax -2.23257 1.39277 -1.8642
lowerneck -23.9505 2.90748 3.43135
upperneck 26.5378 2.51865 1.08946
head 12.897 1.63733 0.302104
rclavicle 4.77891e-014 3.22031e-014
rhumerus -37.9747 11.9945 -89.8633
rradius 51.7469
rwrist -13.5236
rhand -20.2011 12.9759
rfingers 7.12502
rthumb 6.1457 -16.9149
lclavicle 4.77891e-014 3.22031e-014
lhumerus -35.5105 -8.11361 86.3232
lradius 36.5187
lwrist 31.4719
lhand -18.8584 62.3271
lfingers 7.12502
lthumb -172.558 87.8238
rfemur 1.90376 -4.89747 22.9833
rtibia 7.95139e-016
rfoot -4.52347 -9.36019
rtoes -56.7654
lfemur -16.0218 -13.7898 -12.6286
ltibia 25.9365
lfoot -16.3338 4.47789
ltoes -60.6877
3
root 4.93485 18.6118 -9.96599 4.49698 11.6666 -3.82183
lowerback 1.22431 2.10738 3.58047
upperback -1.71553 2.90424 0.209967
thorax -2.28256 1.38988 -1.87609
lowerneck -23.8782 2.86259 3.46372
upperneck 26.6322 2.45497 1.06071
head 12.9213 1.61002 0.27431
rclavicle 5.28022e-016 -5.96354e-015
rhumerus -37.9277 11.6761 -89.6169
rradius 51.3027
rwrist -12.3737
rhand -19.3766 13.1365
rfingers 7.12502
rthumb 6.94166 -16.7297
lclavicle 5.28022e-016 -5.96354e-015
lhumerus -35.4716 -8.31159 86.594
lradius 37.134
lwrist 30.978
lhand -18.7117 61.9628
lfingers 7.12502
lthumb -172.417 88.1931
rfemur 1.96616 -5.04789 23.076
rtibia -7.95139e-015
rfoot -4.59939 -9.34373
rtoes -56.6102
lfemur -16.0197 -14.0202 -12.5154
ltibia 25.9379
lfoot -16.3131 4.52146
ltoes -60.6382
4
root 4.92168 18.6107 -9.97233 4.43203 11.7927 -3.88003
lowerback 1.21004 2.11076 3.60741
upperback -1.74277 2.91 0.232296
thorax -2.30218 1.39181 -1.86843
lowerneck -23.8342 2.81661 3.44029
upperneck 26.7272 2.38843 1.10029
head 12.9495 1.58535 0.282175
rclavicle -4.20492e-014 3.77691e-015
rhumerus -37.911 11.5146 -89.3939
rradius 50.946
rwrist -11.353
rhand -18.6063 13.1055
rfingers 7.12502
rthumb 7.68513 -16.7348
lclavicle -4.20492e-014 3.77691e-015
lhumerus -35.3635 -8.66826 86.8386
lradius 37.7448
lwrist 30.8102
lhand -18.7168 61.5868
lfingers 7.12502
lthumb -172.422 88.5689
rfemur 2.02063 -5.17064 23.174
rtibia 1.35174e-014
rfoot -4.70269 -9.35672
rtoes -56.2429
lfemur -16.0154 -14.3018 -12.3927
ltibia 25.9448
lfoot -16.3107 4.66911
ltoes -60.5974
5
root 4.91112 18.6105 -9.97746 4.34113 11.8733 -3.89846
lowerback 1.22614 2.121 3.59993
upperback -1.74841 2.92434 0.232604
thorax -2.31659 1.39875 -1.86515
lowerneck -23.8565 2.76895 3.31402
upperneck 26.8018 2.29073 1.34566
head 12.9783 1.56533 0.38221
rclavicle -3.17993e-014 1.09332e-014
rhumerus -37.8717 11.3524 -89.2126
rradius 50.5791
rwrist -10.2336
rhand -17.6571 13.3328
rfingers 7.12502
rthumb 8.60124 -16.472
lclavicle -3.17993e-014 1.09332e-014
lhumerus -35.2673 -9.03097 87.061
lradius 38.3633
lwrist 30.7608
lhand -18.7252 61.3039
lfingers 7.12502
lthumb -172.43 88.8516
rfemur 2.15354 -5.25468 23.2051
rtibia 0
rfoot -4.91412 -9.35184
rtoes -55.6382
lfemur -15.9556 -14.5375 -12.3435
ltibia 25.9553
lfoot -16.3128 4.75767
ltoes -60.5043
6
root 4.90198 18.6112 -9.98486 4.25598 11.9502 -3.90992
lowerback 1.2937 2.15386 3.63638
upperback -1.78285 2.97198 0.190641
thorax -2.38342 1.41976 -1.93356
lowerneck -23.871 2.71093 3.22916
upperneck 26.8722 2.16608 1.57882
head 13.0052 1.53624 0.465785
rclavicle 1.21569e-014 3.57812e-015
rhumerus -37.7536 10.6631 -88.7843
rradius 50.1301
rwrist -8.02456
rhand -15.667 13.8369
rfingers 7.12502
rthumb 10.5214 -15.8797
lclavicle 1.21569e-014 3.57812e-015
lhumerus -35.1935 -9.44483 87.2874
lradius 38.9395
lwrist 30.6867
lhand -18.617 61.0507
lfingers 7.12502
lthumb -172.325 89.1086
rfemur 2.2292 -5.33401 23.2386
rtibia 2.46493e-014
rfoot -4.95078 -9.31921
rtoes -55.6001
lfemur -15.9048 -14.5781 -12.3063
ltibia 25.9618
lfoot -16.2708 4.61338
ltoes -60.2671
7
root 4.89145 18.6097 -9.99346 4.16761 12.0755 -3.95781
lowerback 1.35459 2.17954 3.68689
upperback -1.81802 3.01054 0.164094
thorax -2.44784 1.4361 -1.99359
lowerneck -23.8726 2.67486 3.26165
upperneck 26.9644 2.08815 1.62083
head 13.0431 1.51295 0.46412
rclavicle 7.88119e-014 -4.37326e-015
rhumerus -37.8213 10.5156 -88.7978
rradius 49.8888
rwrist -7.9378
rhand -15.3612 13.4852
rfingers 7.12502
rthumb 10.8163 -16.2163
lclavicle 7.88119e-014 -4.37326e-015
lhumerus -35.1178 -9.82321 87.4922
lradius 39.4713
lwrist 30.6107
lhand -18.4938 60.7901
lfingers 7.12502
lthumb -172.206 89.3736
rfemur 2.279 -5.45813 23.3236
rtibia 1.59028e-015
rfoot -4.96149 -9.27949
rtoes -55.6598
lfemur -15.8931 -14.3992 -12.2318
ltibia 25.9639
lfoot -16.2381 4.34396
ltoes -60.3241
8
root 4.88126 18.6052 -9.99949 4.06925 12.2093 -3.99189
lowerback 1.35917 2.16555 3.6461
upperback -1.8202 2.99158 0.185544
thorax -2.4569 1.42741 -1.9486
lowerneck -23.788 2.68804 3.34565
upperneck 26.9392 2.09683 1.56464
head 13.0179 1.51748 0.428265
rclavicle -2.69477e-014 -4.17448e-015
rhumerus -37.9033 10.5144 -88.783
rradius 49.5559
rwrist -7.91229
rhand -15.1565 13.9771
rfingers 7.12502
rthumb 11.0139 -15.714
lclavicle -2.69477e-014 -4.17448e-015
lhumerus -35.0477 -9.97012 87.6708
lradius 39.9651
lwrist 30.5262
lhand -18.4574 60.5279
lfingers 7.12502
lthumb -172.171 89.6371
rfemur 2.35946 -5.59315 23.3878
rtibia 1.66979e-014
rfoot -4.96266 -9.28558
rtoes -55.4761
lfemur -15.8744 -13.9147 -12.2031
ltibia 25.9577
lfoot -16.2683 3.89115
ltoes -60.7069
9
root 4.87287 18.6024 -10.0043 3.98658 12.297 -4.00557
lowerback 1.36105 2.15572 3.57948
upperback -1.82478 2.97795 0.227679
thorax -2.46891 1.42199 -1.86809
lowerneck -23.6301 2.69376 3.32956
upperneck 26.8203 2.12681 1.54486
head 12.9375 1.52488 0.424628
rclavicle -4.92178e-014 -1.43125e-014
rhumerus -38.013 10.6215 -88.7822
rradius 49.3103
rwrist -7.98364
rhand -15.1176 14.4274
rfingers 7.12502
rthumb 11.0514 -15.2617
lclavicle -4.92178e-014 -1.43125e-014
lhumerus -35.0256 -10.035 87.9014
lradius 40.4229
lwrist 30.4411
lhand -18.472 60.0699
lfingers 7.12502
lthumb -172.185 -90.0945
rfemur 2.43305 -5.68346 23.4218
rtibia -1.82882e-014
rfoot -4.93451 -9.28452
rtoes -55.4119
lfemur -15.8346 -13.5993 -12.1914
ltibia 25.936
lfoot -16.2809 3.55575
ltoes -60.8681
10
root 4.86558 18.602 -10.0107 3.91815 12.3693 -4.02994
lowerback 1.385 2.16216 3.57375
upperback -1.8318 2.98806 0.245653
thorax -2.49028 1.42682 -1.84799
lowerneck -23.5789 2.68276 3.2675
upperneck 26.8051 2.13353 1.56019
head 12.9196 1.52348 0.44114
rclavicle -1.33745e-014 2.5842e-015
rhumerus -38.1955 10.6627 -88.7545
rradius 49.1793
rwrist -8.05356
rhand -15.2458 14.2467
rfingers 7.12502
rthumb 10.9277 -15.449
lclavicle -1.33745e-014 2.5842e-015
lhumerus -35.0526 -10.2757 88.1674
lradius 40.8625
lwrist 30.556
lhand -18.6348 59.6786
lfingers 7.12502
lthumb -172.342 -90.48
rfemur 2.48429 -5.75685 23.4655
rtibia 2.38542e-014
rfoot -4.97522 -9.26017
rtoes -55.608
lfemur -15.7809 -13.8842 -12.1402
ltibia 25.9019
lfoot -16.2411 3.72474
ltoes -60.8163
